<svg xmlns="http://www.w3.org/2000/svg" version="1.1" xmlns:xlink="http://www.w3.org/1999/xlink" viewBox="0 0 200 200"><rect width="200" height="200" fill="url('#gradient')"></rect><defs><linearGradient id="gradient" gradientTransform="rotate(45 0.5 0.5)"><stop offset="0%" stop-color="#dee90b"></stop><stop offset="100%" stop-color="#d9e241"></stop></linearGradient></defs><g><g fill="#1b3855" transform="matrix(2.403129074315515,0,0,2.403129074315515,9.716085578285572,113.3937320460552)" stroke="#0e5278" stroke-width="0.2"><path d="M4.95 0L1.65 0L1.65-8.28L0.12-8.28L0.12-10.57L1.65-10.57L1.65-11.41Q1.65-13.21 2.71-14.21Q3.78-15.21 5.70-15.21L5.70-15.21Q6.41-15.21 7.25-15L7.25-15L7.26-12.58Q6.95-12.67 6.45-12.67L6.45-12.67Q4.95-12.67 4.95-11.38L4.95-11.38L4.95-10.57L7.01-10.57L7.01-8.28L4.95-8.28L4.95 0ZM11.64-10.57L11.64 0L8.34 0L8.34-10.57L11.64-10.57ZM8.14-13.29L8.14-13.29Q8.14-13.99 8.65-14.44Q9.16-14.89 9.97-14.89Q10.78-14.89 11.29-14.44Q11.80-13.99 11.80-13.29Q11.80-12.59 11.29-12.14Q10.78-11.69 9.97-11.69Q9.16-11.69 8.65-12.14Q8.14-12.59 8.14-13.29ZM20.12-10.64L20.06-7.59L18.97-7.67Q17.42-7.67 16.98-6.69L16.98-6.69L16.98 0L13.69 0L13.69-10.57L16.78-10.57L16.88-9.21Q17.71-10.76 19.20-10.76L19.20-10.76Q19.73-10.76 20.12-10.64L20.12-10.64ZM26.78-2.97L26.78-2.97Q26.78-3.39 26.34-3.64Q25.90-3.90 24.67-4.17Q23.44-4.44 22.64-4.89Q21.84-5.33 21.42-5.97Q21.00-6.60 21.00-7.42L21.00-7.42Q21.00-8.88 22.20-9.82Q23.40-10.76 25.34-10.76L25.34-10.76Q27.43-10.76 28.70-9.81Q29.97-8.87 29.97-7.32L29.97-7.32L26.67-7.32Q26.67-8.59 25.33-8.59L25.33-8.59Q24.81-8.59 24.46-8.31Q24.11-8.02 24.11-7.59L24.11-7.59Q24.11-7.15 24.54-6.88Q24.97-6.60 25.91-6.43Q26.86-6.25 27.57-6.01L27.57-6.01Q29.95-5.19 29.95-3.07L29.95-3.07Q29.95-1.62 28.67-0.71Q27.38 0.20 25.34 0.20L25.34 0.20Q23.98 0.20 22.92-0.29Q21.86-0.78 21.26-1.62Q20.66-2.46 20.66-3.39L20.66-3.39L23.74-3.39Q23.76-2.66 24.23-2.32Q24.70-1.98 25.43-1.98L25.43-1.98Q26.10-1.98 26.44-2.26Q26.78-2.53 26.78-2.97ZM32.03-13.19L35.32-13.19L35.32-10.57L37.06-10.57L37.06-8.28L35.32-8.28L35.32-3.45Q35.32-2.85 35.54-2.62Q35.75-2.38 36.39-2.38L36.39-2.38Q36.88-2.38 37.21-2.44L37.21-2.44L37.21-0.09Q36.32 0.20 35.35 0.20L35.35 0.20Q33.65 0.20 32.84-0.61Q32.03-1.41 32.03-3.04L32.03-3.04L32.03-8.28L30.68-8.28L30.68-10.57L32.03-10.57L32.03-13.19ZM52.58 0L49.29 0Q49.11-0.32 48.97-0.95L48.97-0.95Q48.07 0.20 46.44 0.20L46.44 0.20Q44.94 0.20 43.90-0.71Q42.85-1.61 42.85-2.98L42.85-2.98Q42.85-4.70 44.12-5.58Q45.39-6.46 47.81-6.46L47.81-6.46L48.83-6.46L48.83-7.01Q48.83-8.47 47.57-8.47L47.57-8.47Q46.40-8.47 46.40-7.31L46.40-7.31L43.11-7.31Q43.11-8.85 44.41-9.80Q45.71-10.76 47.73-10.76Q49.76-10.76 50.93-9.78Q52.10-8.79 52.13-7.07L52.13-7.07L52.13-2.39Q52.15-0.94 52.58-0.17L52.58-0.17L52.58 0ZM47.23-2.15L47.23-2.15Q47.84-2.15 48.25-2.41Q48.65-2.68 48.83-3.01L48.83-3.01L48.83-4.70L47.87-4.70Q46.15-4.70 46.15-3.15L46.15-3.15Q46.15-2.71 46.46-2.43Q46.76-2.15 47.23-2.15ZM63.76-5.36L63.76-5.21Q63.76-2.74 62.65-1.27Q61.54 0.20 59.66 0.20L59.66 0.20Q58.20 0.20 57.27-0.87L57.27-0.87L57.27 4.06L53.97 4.06L53.97-10.57L57.05-10.57L57.15-9.59Q58.10-10.76 59.64-10.76L59.64-10.76Q61.59-10.76 62.68-9.32Q63.76-7.88 63.76-5.36L63.76-5.36ZM60.47-5.06L60.47-5.41Q60.47-8.22 58.83-8.22L58.83-8.22Q57.66-8.22 57.27-7.38L57.27-7.38L57.27-3.22Q57.70-2.34 58.85-2.34L58.85-2.34Q60.42-2.34 60.47-5.06L60.47-5.06ZM75.02-5.36L75.02-5.21Q75.02-2.74 73.91-1.27Q72.80 0.20 70.92 0.20L70.92 0.20Q69.46 0.20 68.53-0.87L68.53-0.87L68.53 4.06L65.23 4.06L65.23-10.57L68.31-10.57L68.41-9.59Q69.36-10.76 70.90-10.76L70.90-10.76Q72.85-10.76 73.94-9.32Q75.02-7.88 75.02-5.36L75.02-5.36ZM71.73-5.06L71.73-5.41Q71.73-8.22 70.09-8.22L70.09-8.22Q68.92-8.22 68.53-7.38L68.53-7.38L68.53-3.22Q68.96-2.34 70.11-2.34L70.11-2.34Q71.68-2.34 71.73-5.06L71.73-5.06Z"></path></g></g></svg>